<?xml version="1.0" encoding="UTF-8"?>
<svg width="53px" height="53px" viewBox="0 0 53 53" version="1.1" xmlns="http://www.w3.org/2000/svg" xmlns:xlink="http://www.w3.org/1999/xlink">
    <title>Left door lock</title>
    <g id="App" stroke="none" stroke-width="1" fill="none" fill-rule="evenodd">
        <g id="Car-Lock" transform="translate(-32.000000, -398.000000)" fill="#FF5368">
            <g id="Lockers" transform="translate(21.000000, 207.000000)">
                <g id="Left-door-lock" transform="translate(0.000000, 180.000000)">
                    <circle id="Oval-2" stroke="#FF5368" stroke-width="2.25" fill-opacity="0.15" cx="37.5" cy="37.5" r="24.75"></circle>
                    <path d="M37.875,28.5002796 C40.3537914,28.4734105 42.75,30.3887298 42.75,31.9470345 L42.75,35.7767623 C43.5784271,35.7767623 44.25,36.4483352 44.25,37.2767623 L44.25,45 C44.25,45.8284271 43.5784271,46.5 42.75,46.5 L33,46.5 C32.1715729,46.5 31.5,45.8284271 31.5,45 L31.5,37.2767623 C31.5,36.4483352 32.1715729,35.7767623 33,35.7767623 L33,31.9470345 L33,31.9470345 C33,30.4415571 35.4802408,28.5262377 37.875,28.5002796 Z M37.875,39.60649 C37.2536797,39.60649 36.75,40.1208783 36.75,40.7554084 C36.75,41.2238352 37.0244944,41.6267873 37.418173,41.8056527 L37.125,44.2021633 L38.625,44.2021633 L38.3328052,41.8052076 C38.7259603,41.6261195 39,41.2234471 39,40.7554084 C39,40.1208783 38.4963203,39.60649 37.875,39.60649 Z M37.875,30.7981162 C36.5541465,30.7903939 35.25,31.5074769 35.25,32.7129801 L35.25,32.9649168 C35.25,32.9987014 35.25,33.0344166 35.25,33.0720623 L35.25,35.2937555 L35.25,35.2937555 L40.5,35.776 L40.5,32.7129801 L40.5,32.7129801 C40.5,31.5228232 39.1790388,30.8057402 37.875,30.7981162 Z" id="Combined-Shape"></path>
                </g>
            </g>
        </g>
    </g>
</svg>
