<?xml version="1.0" encoding="UTF-8"?>
<svg width="53px" height="53px" viewBox="0 0 53 53" version="1.1" xmlns="http://www.w3.org/2000/svg" xmlns:xlink="http://www.w3.org/1999/xlink">
    <title>Left door unlock</title>
    <g id="App" stroke="none" stroke-width="1" fill="none" fill-rule="evenodd">
        <g id="Car-Unlock" transform="translate(-32.000000, -398.000000)" fill="#53F9FF">
            <g id="Lockers" transform="translate(21.000000, 207.000000)">
                <g id="Left-door-unlock" transform="translate(0.000000, 180.000000)">
                    <circle id="Oval-2" stroke="#53F9FF" stroke-width="2.256" fill-opacity="0.15" cx="37.5" cy="37.5" r="24.75"></circle>
                    <path d="M41.625,28.5002796 C44.1037914,28.4734105 46.5,30.3887298 46.5,31.9470345 L46.5,37.3086534 L46.5,37.3086534 C46.0013843,37.5639686 45.6263843,37.6916262 45.375,37.6916262 C45.1236157,37.6916262 44.7486157,37.5639686 44.25,37.3086534 L44.25,32.7129801 L44.25,32.7129801 C44.25,31.5228232 42.9290388,30.8057402 41.625,30.7981162 C40.3041465,30.7903939 39,31.5074769 39,32.7129801 L39,35.776 L39.1328947,35.7829086 C39.8993762,35.8520659 40.5,36.4962725 40.5,37.2807623 L40.5,44.996 C40.5,45.8266363 39.8266363,46.5 38.996,46.5 L29.254,46.5 C28.4233637,46.5 27.75,45.8266363 27.75,44.996 L27.75,37.2807623 C27.75,36.450126 28.4233637,35.7767623 29.254,35.7767623 L36.75,35.776 L36.75,31.9470345 L36.75,31.9470345 C36.75,30.4415571 39.2302408,28.5262377 41.625,28.5002796 Z M34.125,39.60649 C33.5036797,39.60649 33,40.1208783 33,40.7554084 C33,41.2238352 33.2744944,41.6267873 33.668173,41.8056527 L33.375,44.2021633 L34.875,44.2021633 L34.5828052,41.8052076 C34.9759603,41.6261195 35.25,41.2234471 35.25,40.7554084 C35.25,40.1208783 34.7463203,39.60649 34.125,39.60649 Z" id="Combined-Shape"></path>
                </g>
            </g>
        </g>
    </g>
</svg>
